<svg version="1.1" xmlns="http://www.w3.org/2000/svg" xmlns:xlink="http://www.w3.org/1999/xlink" width="702.4326171875" height="236"><defs/><g><g transform="translate(-6,-6) scale(1,1)"><rect fill="#C0C0C0" stroke="none" x="215" y="23" width="106.4326171875" height="32" opacity="0.2"/></g><g transform="translate(-6,-6) scale(1,1)"><rect fill="#ffff80" stroke="none" x="208" y="16" width="106.4326171875" height="32"/></g><g transform="translate(-6,-6) scale(1,1)"><path fill="none" stroke="#000000" d="M 208 16 L 314.4326171875 16 L 314.4326171875 48 L 208 48 L 208 16 Z Z" stroke-miterlimit="10"/></g><g transform="translate(-6,-6) scale(1,1)"><g><path fill="none" stroke="none"/><text fill="#000000" stroke="none" font-family="Arial" font-size="13px" font-style="normal" font-weight="normal" text-decoration="none" x="261.21630859375" y="33.5"></text></g></g><g transform="translate(-6,-6) scale(1,1)"><g><path fill="none" stroke="none"/><text fill="#000000" stroke="none" font-family="Arial" font-size="13px" font-style="normal" font-weight="normal" text-decoration="none" x="231.588623046875" y="38.5">S3 Bucket</text></g></g><g transform="translate(-6,-6) scale(1,1)"><g><path fill="none" stroke="none"/><text fill="#000000" stroke="none" font-family="Arial" font-size="13px" font-style="normal" font-weight="normal" text-decoration="none" x="-304.5" y="-51.5"></text></g></g><g transform="translate(-6,-6) scale(1,1)"><rect fill="#C0C0C0" stroke="none" x="215" y="111" width="106.4326171875" height="45" opacity="0.2"/></g><g transform="translate(-6,-6) scale(1,1)"><rect fill="#8aff80" stroke="none" x="208" y="104" width="106.4326171875" height="45"/></g><g transform="translate(-6,-6) scale(1,1)"><path fill="none" stroke="#000000" d="M 208 104 L 314.4326171875 104 L 314.4326171875 149 L 208 149 L 208 104 Z Z" stroke-miterlimit="10"/></g><g transform="translate(-6,-6) scale(1,1)"><g><path fill="none" stroke="none"/><text fill="#000000" stroke="none" font-family="Arial" font-size="13px" font-style="normal" font-weight="normal" text-decoration="none" x="261.21630859375" y="121.5"></text></g></g><g transform="translate(-6,-6) scale(1,1)"><g><path fill="none" stroke="none"/><text fill="#000000" stroke="none" font-family="Arial" font-size="13px" font-style="normal" font-weight="normal" text-decoration="none" x="234.47998046875" y="126.5">GraphQL</text><text fill="#000000" stroke="none" font-family="Arial" font-size="13px" font-style="normal" font-weight="normal" text-decoration="none" x="239.542236328125" y="139.5">Service</text></g></g><g transform="translate(-6,-6) scale(1,1)"><g><path fill="none" stroke="none"/><text fill="#000000" stroke="none" font-family="Arial" font-size="13px" font-style="normal" font-weight="normal" text-decoration="none" x="-88.5" y="-123.5"></text></g></g><g transform="translate(-6,-6) scale(1,1)"><rect fill="#C0C0C0" stroke="none" x="215" y="207" width="106.4326171875" height="32" opacity="0.2"/></g><g transform="translate(-6,-6) scale(1,1)"><rect fill="#9580ff" stroke="none" x="208" y="200" width="106.4326171875" height="32"/></g><g transform="translate(-6,-6) scale(1,1)"><path fill="none" stroke="#000000" d="M 208 200 L 314.4326171875 200 L 314.4326171875 232 L 208 232 L 208 200 Z Z" stroke-miterlimit="10"/></g><g transform="translate(-6,-6) scale(1,1)"><g><path fill="none" stroke="none"/><text fill="#ffffff" stroke="none" font-family="Arial" font-size="13px" font-style="normal" font-weight="normal" text-decoration="none" x="261.21630859375" y="217.5"></text></g></g><g transform="translate(-6,-6) scale(1,1)"><g><path fill="none" stroke="none"/><text fill="#ffffff" stroke="none" font-family="Arial" font-size="13px" font-style="normal" font-weight="normal" text-decoration="none" x="220.746826171875" y="222.5">Blog Manager</text></g></g><g transform="translate(-6,-6) scale(1,1)"><g><path fill="none" stroke="none"/><text fill="#ffffff" stroke="none" font-family="Arial" font-size="13px" font-style="normal" font-weight="normal" text-decoration="none" x="-224.5" y="-155.5"></text></g></g><g transform="translate(-6,-6) scale(1,1)"><rect fill="#C0C0C0" stroke="none" x="599" y="127" width="106.4326171875" height="32" opacity="0.2"/></g><g transform="translate(-6,-6) scale(1,1)"><rect fill="#9580ff" stroke="none" x="592" y="120" width="106.4326171875" height="32"/></g><g transform="translate(-6,-6) scale(1,1)"><path fill="none" stroke="#000000" d="M 592 120 L 698.4326171875 120 L 698.4326171875 152 L 592 152 L 592 120 Z Z" stroke-miterlimit="10"/></g><g transform="translate(-6,-6) scale(1,1)"><g><path fill="none" stroke="none"/><text fill="#ffffff" stroke="none" font-family="Arial" font-size="13px" font-style="normal" font-weight="normal" text-decoration="none" x="645.21630859375" y="137.5"></text></g></g><g transform="translate(-6,-6) scale(1,1)"><g><path fill="none" stroke="none"/><text fill="#ffffff" stroke="none" font-family="Arial" font-size="13px" font-style="normal" font-weight="normal" text-decoration="none" x="632.206787109375" y="142.5">Blog</text></g></g><g transform="translate(-6,-6) scale(1,1)"><g><path fill="none" stroke="none"/><text fill="#ffffff" stroke="none" font-family="Arial" font-size="13px" font-style="normal" font-weight="normal" text-decoration="none" x="295.5" y="-299.5"></text></g></g><g transform="translate(-6,-6) scale(1,1)"><path fill="#C0C0C0" stroke="none" d="M 409 111 L 517 111 Q 527 111 527 121 L 527 156 Q 527 166 517 166 L 409 166 Q 399 166 399 156 L 399 121 Q 399 111 409 111 Z" opacity="0.2"/></g><g transform="translate(-6,-6) scale(1,1)"><path fill="#9580ff" stroke="none" d="M 402 104 L 510 104 Q 520 104 520 114 L 520 149 Q 520 159 510 159 L 402 159 Q 392 159 392 149 L 392 114 Q 392 104 402 104 Z"/></g><g transform="translate(-6,-6) scale(1,1)"><path fill="none" stroke="#000000" d="M 402 104 L 510 104 Q 520 104 520 114 L 520 149 Q 520 159 510 159 L 402 159 Q 392 159 392 149 L 392 114 Q 392 104 402 104 Z" stroke-miterlimit="10"/></g><g transform="translate(-6,-6) scale(1,1)"><path fill="none" stroke="#000000" d="M 392 127 L 520 127" stroke-miterlimit="10"/></g><g transform="translate(-6,-6) scale(1,1)"><g><path fill="none" stroke="none"/><text fill="#ffffff" stroke="none" font-family="Arial" font-size="13px" font-style="normal" font-weight="normal" text-decoration="none" x="418.056884765625" y="148.5">Blog Building</text></g></g><g transform="translate(-6,-6) scale(1,1)"><g><path fill="none" stroke="none"/><text fill="#ffffff" stroke="none" font-family="Arial" font-size="13px" font-style="normal" font-weight="normal" text-decoration="none" x="456" y="121.5"></text></g></g><g transform="translate(-6,-6) scale(1,1)"><rect fill="#C0C0C0" stroke="none" x="23" y="119" width="94.76171875" height="32" opacity="0.2"/></g><g transform="translate(-6,-6) scale(1,1)"><rect fill="#ff80bf" stroke="none" x="16" y="112" width="94.76171875" height="32"/></g><g transform="translate(-6,-6) scale(1,1)"><path fill="none" stroke="#000000" d="M 16 112 L 16 144" stroke-miterlimit="10"/></g><g transform="translate(-6,-6) scale(1,1)"><path fill="none" stroke="#000000" d="M 16 112 L 110.76171875 112" stroke-miterlimit="10"/></g><g transform="translate(-6,-6) scale(1,1)"><path fill="none" stroke="#000000" d="M 16 144 L 110.76171875 144" stroke-miterlimit="10"/></g><g transform="translate(-6,-6) scale(1,1)"><path fill="none" stroke="#000000" d="M 26 112 L 26 144" stroke-miterlimit="10"/></g><g transform="translate(-6,-6) scale(1,1)"><g><path fill="none" stroke="none"/><text fill="#000000" stroke="none" font-family="Arial" font-size="13px" font-style="normal" font-weight="normal" text-decoration="none" x="37.674072265625" y="134.5">SQLite DB</text></g></g><g transform="translate(-6,-6) scale(1,1)"><g><path fill="none" stroke="none"/><text fill="#000000" stroke="none" font-family="Arial" font-size="13px" font-style="normal" font-weight="normal" text-decoration="none" x="20.5" y="134.5"></text></g></g><g transform="translate(-6,-6) scale(1,1)"><path fill="none" stroke="#000000" d="M 208 128 L 111 128" stroke-miterlimit="10"/></g><g transform="translate(-6,-6) scale(1,1)"><path fill="#000000" stroke="none" d="M 121.16267485762415 123.79048224398402 L 111 128 L 121.16267485762415 132.209517756016"/></g><g transform="translate(-6,-6) scale(1,1)"><path fill="none" stroke="#000000" d="M 121.16267485762415 123.79048224398402 L 111 128 L 121.16267485762415 132.209517756016 L 121.16267485762415 123.79048224398402" stroke-miterlimit="10"/></g><g transform="translate(-6,-6) scale(1,1)"><path fill="none" stroke="#000000" d="M 111 128 L 208 128" stroke-miterlimit="10"/></g><g transform="translate(-6,-6) scale(1,1)"><path fill="#000000" stroke="none" d="M 197.83732514237585 132.209517756016 L 208 128 L 197.83732514237585 123.79048224398402"/></g><g transform="translate(-6,-6) scale(1,1)"><path fill="none" stroke="#000000" d="M 197.83732514237585 132.209517756016 L 208 128 L 197.83732514237585 123.79048224398402 L 197.83732514237585 132.209517756016" stroke-miterlimit="10"/></g><g transform="translate(-6,-6) scale(1,1)"><path fill="none" stroke="#000000" d="M 261 104 L 261 48" stroke-miterlimit="10"/></g><g transform="translate(-6,-6) scale(1,1)"><path fill="#000000" stroke="none" d="M 265.209517756016 58.162674857624154 L 261 48 L 256.790482243984 58.162674857624154"/></g><g transform="translate(-6,-6) scale(1,1)"><path fill="none" stroke="#000000" d="M 265.209517756016 58.162674857624154 L 261 48 L 256.790482243984 58.162674857624154 L 265.209517756016 58.162674857624154" stroke-miterlimit="10"/></g><g transform="translate(-6,-6) scale(1,1)"><path fill="none" stroke="#000000" d="M 261 48 L 261 104" stroke-miterlimit="10"/></g><g transform="translate(-6,-6) scale(1,1)"><path fill="#000000" stroke="none" d="M 256.790482243984 93.83732514237585 L 261 104 L 265.209517756016 93.83732514237585"/></g><g transform="translate(-6,-6) scale(1,1)"><path fill="none" stroke="#000000" d="M 256.790482243984 93.83732514237585 L 261 104 L 265.209517756016 93.83732514237585 L 256.790482243984 93.83732514237585" stroke-miterlimit="10"/></g><g transform="translate(-6,-6) scale(1,1)"><path fill="none" stroke="#000000" d="M 259 200 L 259 149" stroke-miterlimit="10"/></g><g transform="translate(-6,-6) scale(1,1)"><path fill="#000000" stroke="none" d="M 263.209517756016 159.16267485762415 L 259 149 L 254.790482243984 159.16267485762415"/></g><g transform="translate(-6,-6) scale(1,1)"><path fill="none" stroke="#000000" d="M 263.209517756016 159.16267485762415 L 259 149 L 254.790482243984 159.16267485762415 L 263.209517756016 159.16267485762415" stroke-miterlimit="10"/></g><g transform="translate(-6,-6) scale(1,1)"><path fill="none" stroke="#000000" d="M 259 149 L 259 200" stroke-miterlimit="10"/></g><g transform="translate(-6,-6) scale(1,1)"><path fill="#000000" stroke="none" d="M 254.790482243984 189.83732514237585 L 259 200 L 263.209517756016 189.83732514237585"/></g><g transform="translate(-6,-6) scale(1,1)"><path fill="none" stroke="#000000" d="M 254.790482243984 189.83732514237585 L 259 200 L 263.209517756016 189.83732514237585 L 254.790482243984 189.83732514237585" stroke-miterlimit="10"/></g><g transform="translate(-6,-6) scale(1,1)"><path fill="none" stroke="#000000" d="M 314 129 L 392 129" stroke-miterlimit="10"/></g><g transform="translate(-6,-6) scale(1,1)"><path fill="#000000" stroke="none" d="M 381.83732514237585 133.209517756016 L 392 129 L 381.83732514237585 124.79048224398402"/></g><g transform="translate(-6,-6) scale(1,1)"><path fill="none" stroke="#000000" d="M 381.83732514237585 133.209517756016 L 392 129 L 381.83732514237585 124.79048224398402 L 381.83732514237585 133.209517756016" stroke-miterlimit="10"/></g><g transform="translate(-6,-6) scale(1,1)"><path fill="none" stroke="#000000" d="M 520 135 L 592 135" stroke-miterlimit="10"/></g><g transform="translate(-6,-6) scale(1,1)"><path fill="#000000" stroke="none" d="M 581.8373251423759 139.209517756016 L 592 135 L 581.8373251423758 130.790482243984"/></g><g transform="translate(-6,-6) scale(1,1)"><path fill="none" stroke="#000000" d="M 581.8373251423759 139.209517756016 L 592 135 L 581.8373251423758 130.790482243984 L 581.8373251423759 139.209517756016" stroke-miterlimit="10"/></g></g></svg>
